<?xml version="1.0" encoding="UTF-8" standalone="no"?>
<!-- Generator: Adobe Illustrator 22.0.1, SVG Export Plug-In . SVG Version: 6.00 Build 0)  -->

<svg
   version="1.1"
   x="0px"
   y="0px"
   width="100"
   height="100"
   viewBox="0 0 44.444444 44.444444"
   xml:space="preserve"
   id="svg21"
   sodipodi:docname="pluginIcon.svg"
   inkscape:version="1.1 (c68e22c387, 2021-05-23)"
   inkscape:export-filename="C:\Users\Macko\source\repos\RsIC\docs\source\images\pluginIcon.png"
   inkscape:export-xdpi="96"
   inkscape:export-ydpi="96"
   xmlns:inkscape="http://www.inkscape.org/namespaces/inkscape"
   xmlns:sodipodi="http://sodipodi.sourceforge.net/DTD/sodipodi-0.dtd"
   xmlns="http://www.w3.org/2000/svg"
   xmlns:svg="http://www.w3.org/2000/svg"><defs
   id="defs25" /><sodipodi:namedview
   id="namedview23"
   pagecolor="#ffffff"
   bordercolor="#666666"
   borderopacity="1.0"
   inkscape:pageshadow="2"
   inkscape:pageopacity="0.0"
   inkscape:pagecheckerboard="0"
   showgrid="false"
   inkscape:zoom="10.458333"
   inkscape:cx="38.677291"
   inkscape:cy="53.01992"
   inkscape:window-width="2402"
   inkscape:window-height="1417"
   inkscape:window-x="150"
   inkscape:window-y="-8"
   inkscape:window-maximized="1"
   inkscape:current-layer="svg21" />
<g
   id="Ebene_2">
</g>
    <g
   id="Layer_2D"
   style="display:none">
</g>
    <g
   id="Ebene_1"
   transform="scale(2.7777777)"
   style="stroke-width:0.36">
	<polygon
   style="fill:#00477a;stroke-width:0.36"
   points="12.903,9.978 14.945,6.496 9.879,0 5.564,0.032 "
   id="polygon4" />
        <polygon
   style="fill:#003052;stroke-width:0.36"
   points="5.787,12.838 9.174,15.041 16,10.224 15.998,5.95 "
   id="polygon6" />
        <polygon
   style="fill:#00477a;stroke-width:0.36"
   points="3.103,6.02 1.061,9.502 6.134,16 10.435,15.968 "
   id="polygon8" />
        <polygon
   style="fill:#b7c4cd;stroke-width:0.36"
   points="12.789,5.674 15.095,8.987 10.437,16 6.134,16 "
   id="polygon10" />
        <polygon
   style="fill:#003052;stroke-width:0.36"
   points="10.219,3.159 6.832,0.957 0,5.753 0.004,10.048 "
   id="polygon12" />
        <polygon
   style="fill:#006bb8;stroke-width:0.36"
   points="7.175,4.079 9.17,0.932 16,5.952 15.996,10.226 "
   id="polygon14" />
        <polygon
   style="fill:#b7c4cd;stroke-width:0.36"
   points="3.217,10.324 0.911,7.01 5.562,0 9.879,0 "
   id="polygon16" />
        <polygon
   style="fill:#006bb8;stroke-width:0.36"
   points="8.785,11.886 6.768,15.016 0.002,10.046 0.004,5.751 "
   id="polygon18" />
</g>
</svg>
